<?xml version="1.0" encoding="UTF-8"?>
<!DOCTYPE svg PUBLIC "-//W3C//DTD SVG 1.1//EN" "http://www.w3.org/Graphics/SVG/1.1/DTD/svg11.dtd">
<svg xmlns="http://www.w3.org/2000/svg" version="1.1" width="2745px" height="1351px" style="shape-rendering:geometricPrecision; text-rendering:geometricPrecision; image-rendering:optimizeQuality; fill-rule:evenodd; clip-rule:evenodd" xmlns:xlink="http://www.w3.org/1999/xlink">
<g><path style="opacity:0.996" fill="#006b32" d="M 276.5,-0.5 C 480.5,-0.5 684.5,-0.5 888.5,-0.5C 927.898,2.85343 965.232,13.6868 1000.5,32C 1063.26,70.6783 1093.1,127.178 1090,201.5C 1088.6,228.52 1083.6,254.853 1075,280.5C 1001.17,341 927.333,401.5 853.5,462C 696.499,462.167 539.499,462.667 382.5,463.5C 357.626,546.12 332.96,628.787 308.5,711.5C 224.833,711.5 141.167,711.5 57.5,711.5C 130.503,474.151 203.503,236.818 276.5,-0.5 Z M 469.5,180.5 C 585.5,180.333 701.5,180.5 817.5,181C 836.828,184.435 847.995,195.935 851,215.5C 853.671,244.337 842.171,265.17 816.5,278C 812.943,279.408 809.276,280.408 805.5,281C 683.168,282.505 560.834,282.672 438.5,281.5C 449.04,247.881 459.373,214.215 469.5,180.5 Z"/></g>
<g><path style="opacity:0.995" fill="#006b32" d="M 1489.5,-0.5 C 1561.5,-0.5 1633.5,-0.5 1705.5,-0.5C 1705.67,167.167 1705.5,334.834 1705,502.5C 1625.78,572.52 1546.28,642.187 1466.5,711.5C 1465.5,677.173 1465.17,642.84 1465.5,608.5C 1354.5,608.833 1243.5,608.5 1132.5,607.5C 1199,553.174 1265.66,499.007 1332.5,445C 1376.83,444.5 1421.17,444.333 1465.5,444.5C 1465.67,390.832 1465.5,337.166 1465,283.5C 1288.92,426.12 1112.76,568.62 936.5,711C 828.833,711.667 721.167,711.667 613.5,711C 905.399,473.59 1197.4,236.424 1489.5,-0.5 Z"/></g>
<g><path style="opacity:0.991" fill="#006b32" d="M 1751.5,-0.5 C 1840.5,-0.5 1929.5,-0.5 2018.5,-0.5C 2058.95,55.5663 2099.29,111.733 2139.5,168C 2111.11,189.032 2082.11,209.365 2052.5,229C 2023.6,250.236 1994.43,271.069 1965,291.5C 1893.09,194.671 1821.92,97.3373 1751.5,-0.5 Z"/></g>
<g><path style="opacity:0.994" fill="#efe609" d="M 2744.5,35.5 C 2744.5,38.8333 2744.5,42.1667 2744.5,45.5C 2739.64,50.1915 2734.64,54.6915 2729.5,59C 2603.98,136.586 2479.65,215.919 2356.5,297C 2289.28,344.11 2222.95,392.444 2157.5,442C 2050.81,528.673 1946.48,618.34 1844.5,711C 1743.17,711.667 1641.83,711.667 1540.5,711C 1613.83,646.333 1687.17,581.667 1760.5,517C 1824.8,464.187 1889.47,411.854 1954.5,360C 2069.03,273.729 2186.37,191.395 2306.5,113C 2361.33,79.0824 2416.33,45.4157 2471.5,12C 2478.68,8.93964 2486.01,6.27297 2493.5,4C 2505.1,1.0744 2514.94,3.90774 2523,12.5C 2523.91,15.9818 2524.75,19.4818 2525.5,23C 2523.69,33.2046 2521.69,43.3712 2519.5,53.5C 2519.86,57.1692 2521.2,60.3359 2523.5,63C 2530.68,65.8578 2538.02,66.1912 2545.5,64C 2577.19,52.494 2606.52,36.8273 2633.5,17C 2637.93,13.8942 2642.76,11.7275 2648,10.5C 2654.65,11.8269 2660.82,14.3269 2666.5,18C 2672.17,18.3333 2677.83,18.6667 2683.5,19C 2686.23,29.6147 2693.07,35.1147 2704,35.5C 2714.67,34.3056 2725.17,32.3056 2735.5,29.5C 2738.52,31.5258 2741.52,33.5258 2744.5,35.5 Z"/></g>
<g><path style="opacity:0.994" fill="#006b32" d="M 2302.5,395.5 C 2304.91,395.921 2306.74,397.254 2308,399.5C 2383.17,503.333 2458.33,607.167 2533.5,711C 2444.5,711.667 2355.5,711.667 2266.5,711C 2221.64,650.307 2176.97,589.474 2132.5,528.5C 2188.04,482.616 2244.71,438.283 2302.5,395.5 Z"/></g>
<g><path style="opacity:0.988" fill="#006b32" d="M -0.5,1097.5 C -0.5,1095.17 -0.5,1092.83 -0.5,1090.5C 15.5394,1001.1 31.5394,911.604 47.5,822C 97.1667,821.333 146.833,821.333 196.5,822C 243.8,827.623 265.967,854.123 263,901.5C 257.094,964.74 222.594,999.24 159.5,1005C 135.502,1005.5 111.502,1005.67 87.5,1005.5C 82.3825,1036.2 77.0492,1066.87 71.5,1097.5C 47.5,1097.5 23.5,1097.5 -0.5,1097.5 Z M 109.5,879.5 C 128.17,879.333 146.836,879.5 165.5,880C 184.043,883.57 191.876,894.737 189,913.5C 185.49,935.341 172.656,947.174 150.5,949C 132.836,949.5 115.17,949.667 97.5,949.5C 101.716,926.206 105.716,902.873 109.5,879.5 Z"/></g>
<g><path style="opacity:0.987" fill="#006b32" d="M 330.5,821.5 C 385.529,821.03 440.529,821.53 495.5,823C 545.464,832.651 563.964,862.151 551,911.5C 542.937,938.306 526.104,957.306 500.5,968.5C 513.804,973.306 521.971,982.639 525,996.5C 526.901,1004.72 527.734,1013.06 527.5,1021.5C 526.456,1039.69 525.123,1057.85 523.5,1076C 523.493,1083.13 524.826,1089.96 527.5,1096.5C 503.509,1097.5 479.509,1097.83 455.5,1097.5C 454.455,1092.39 453.788,1087.23 453.5,1082C 454.569,1065.64 455.902,1049.31 457.5,1033C 458.512,1019.7 453.845,1009.04 443.5,1001C 440.911,999.803 438.244,998.803 435.5,998C 414.503,997.5 393.503,997.333 372.5,997.5C 366.833,1030.83 361.167,1064.17 355.5,1097.5C 331.167,1097.5 306.833,1097.5 282.5,1097.5C 298.887,1005.57 314.887,913.566 330.5,821.5 Z M 393.5,879.5 C 414.836,879.333 436.169,879.5 457.5,880C 477.947,884.387 484.781,896.554 478,916.5C 472.909,930.255 463.076,938.088 448.5,940C 426.503,940.5 404.503,940.667 382.5,940.5C 386.275,920.186 389.941,899.853 393.5,879.5 Z"/></g>
<g><path style="opacity:0.986" fill="#006b32" d="M 624.5,821.5 C 648.842,821.167 673.176,821.5 697.5,822.5C 680.96,914.072 664.96,1005.74 649.5,1097.5C 625.158,1097.83 600.824,1097.5 576.5,1096.5C 592.823,1004.89 608.823,913.227 624.5,821.5 Z"/></g>
<g><path style="opacity:0.986" fill="#006b32" d="M 765.5,821.5 C 801.073,821.171 836.573,821.504 872,822.5C 876.724,882.858 881.724,943.192 887,1003.5C 913.069,943.125 939.236,882.792 965.5,822.5C 1001.16,821.333 1036.83,821.167 1072.5,822C 1056.18,913.096 1040.01,1004.26 1024,1095.5C 1001.4,1097.48 978.564,1098.15 955.5,1097.5C 967.547,1029.55 979.047,961.549 990,893.5C 959.5,961.167 929,1028.83 898.5,1096.5C 879.845,1097.5 861.179,1097.83 842.5,1097.5C 835.931,1028.48 829.098,959.481 822,890.5C 809.831,959.513 797.665,1028.51 785.5,1097.5C 762.833,1097.5 740.167,1097.5 717.5,1097.5C 733.5,1005.5 749.5,913.5 765.5,821.5 Z"/></g>
<g><path style="opacity:0.987" fill="#006b32" d="M 1228.5,821.5 C 1253.56,820.849 1278.39,821.515 1303,823.5C 1320.94,914.825 1338.78,1006.16 1356.5,1097.5C 1331.5,1097.67 1306.5,1097.5 1281.5,1097C 1278.56,1080.85 1275.56,1064.68 1272.5,1048.5C 1241.17,1047.33 1209.84,1047.17 1178.5,1048C 1169.96,1064.25 1161.29,1080.41 1152.5,1096.5C 1127.84,1097.5 1103.18,1097.83 1078.5,1097.5C 1127.96,1005.25 1177.96,913.25 1228.5,821.5 Z M 1250.5,900.5 C 1251.12,900.611 1251.62,900.944 1252,901.5C 1256.59,932.12 1260.76,962.787 1264.5,993.5C 1244.5,993.667 1224.5,993.5 1204.5,993C 1220.24,962.346 1235.58,931.512 1250.5,900.5 Z"/></g>
<g><path style="opacity:0.986" fill="#006b32" d="M 1392.5,821.5 C 1417.5,821.5 1442.5,821.5 1467.5,821.5C 1473.11,889.513 1478.95,957.513 1485,1025.5C 1514.5,957.833 1544,890.167 1573.5,822.5C 1598.83,821.167 1624.17,821.167 1649.5,822.5C 1604.1,913.877 1558.6,1005.21 1513,1096.5C 1485.24,1097.5 1457.41,1097.83 1429.5,1097.5C 1416.79,1005.55 1404.46,913.548 1392.5,821.5 Z"/></g>
<g><path style="opacity:0.985" fill="#006b32" d="M 1719.5,821.5 C 1792.84,821.167 1866.17,821.5 1939.5,822.5C 1935.65,841.407 1932.32,860.407 1929.5,879.5C 1880.5,879.5 1831.5,879.5 1782.5,879.5C 1779.58,895.121 1776.91,910.788 1774.5,926.5C 1819.17,926.167 1863.84,926.5 1908.5,927.5C 1904.95,946.126 1901.62,964.793 1898.5,983.5C 1853.5,983.5 1808.5,983.5 1763.5,983.5C 1761.09,1000.54 1758.43,1017.54 1755.5,1034.5C 1805.5,1034.5 1855.5,1034.5 1905.5,1034.5C 1902.28,1055.44 1898.61,1076.28 1894.5,1097C 1820.17,1097.5 1745.83,1097.67 1671.5,1097.5C 1687.72,1005.54 1703.72,913.538 1719.5,821.5 Z"/></g>
<g><path style="opacity:0.987" fill="#006b32" d="M 2009.5,821.5 C 2062.17,821.333 2114.83,821.5 2167.5,822C 2226.81,831.663 2246.31,864.829 2226,921.5C 2216.36,942.971 2200.86,958.638 2179.5,968.5C 2193.57,973.616 2201.74,983.616 2204,998.5C 2205.72,1006.07 2206.56,1013.74 2206.5,1021.5C 2204.96,1038.98 2203.63,1056.48 2202.5,1074C 2202.67,1078.17 2202.83,1082.33 2203,1086.5C 2203.28,1090.18 2204.45,1093.51 2206.5,1096.5C 2182.5,1097.83 2158.5,1097.83 2134.5,1096.5C 2132.96,1091.65 2132.29,1086.65 2132.5,1081.5C 2133,1069.81 2133.84,1058.14 2135,1046.5C 2135.67,1038.17 2135.67,1029.83 2135,1021.5C 2133.19,1008.67 2126.02,1000.83 2113.5,998C 2092.84,997.5 2072.17,997.333 2051.5,997.5C 2045.67,1030.49 2039.84,1063.49 2034,1096.5C 2009.91,1097.49 1985.74,1097.83 1961.5,1097.5C 1977.37,1005.48 1993.37,913.476 2009.5,821.5 Z M 2071.5,879.5 C 2093.17,879.333 2114.84,879.5 2136.5,880C 2154.14,882.776 2161.31,892.943 2158,910.5C 2154.7,927.465 2144.54,937.298 2127.5,940C 2105.5,940.5 2083.5,940.667 2061.5,940.5C 2064.94,920.184 2068.27,899.851 2071.5,879.5 Z"/></g>
<g><path style="opacity:0.987" fill="#006b32" d="M 2408.5,821.5 C 2433.17,821.5 2457.83,821.5 2482.5,821.5C 2500.17,913.503 2517.83,1005.5 2535.5,1097.5C 2510.5,1097.5 2485.5,1097.5 2460.5,1097.5C 2457.45,1080.9 2454.78,1064.23 2452.5,1047.5C 2420.83,1047.17 2389.16,1047.5 2357.5,1048.5C 2348.71,1064.59 2340.04,1080.75 2331.5,1097C 2306.83,1097.83 2282.16,1097.67 2257.5,1096.5C 2307.59,1004.65 2357.93,912.979 2408.5,821.5 Z M 2430.5,899.5 C 2435.8,930.603 2440.47,961.936 2444.5,993.5C 2424.49,993.833 2404.49,993.5 2384.5,992.5C 2400.12,961.601 2415.45,930.601 2430.5,899.5 Z"/></g>
<g><path style="opacity:0.964" fill="#efe609" d="M -0.5,1167.5 C 845.167,1167.5 1690.83,1167.5 2536.5,1167.5C 2536.5,1172.17 2536.5,1176.83 2536.5,1181.5C 1690.83,1181.5 845.167,1181.5 -0.5,1181.5C -0.5,1176.83 -0.5,1172.17 -0.5,1167.5 Z"/></g>
<g><path style="opacity:0.931" fill="#006b32" d="M 1362.5,1234.5 C 1369.51,1234.33 1376.51,1234.5 1383.5,1235C 1388.83,1242.33 1394.17,1249.67 1399.5,1257C 1393.17,1257.67 1386.83,1257.67 1380.5,1257C 1378,1253.83 1375.5,1250.67 1373,1247.5C 1370.5,1250.67 1368,1253.83 1365.5,1257C 1359.47,1257.83 1353.47,1257.66 1347.5,1256.5C 1352.53,1249.15 1357.53,1241.82 1362.5,1234.5 Z"/></g>
<g><path style="opacity:0.969" fill="#006b32" d="M 15.5,1236.5 C 36.5326,1236.1 57.5326,1236.6 78.5,1238C 93.9127,1243.44 101.579,1254.44 101.5,1271C 101.172,1288.36 92.8387,1299.69 76.5,1305C 63.8716,1306.32 51.2049,1306.82 38.5,1306.5C 38.5,1320.5 38.5,1334.5 38.5,1348.5C 30.8333,1348.5 23.1667,1348.5 15.5,1348.5C 15.5,1311.17 15.5,1273.83 15.5,1236.5 Z M 38.5,1256.5 C 48.5657,1256.1 58.5657,1256.6 68.5,1258C 77.4949,1263.81 79.3283,1271.31 74,1280.5C 72.2691,1282.62 70.1024,1284.12 67.5,1285C 57.8997,1286.39 48.233,1286.89 38.5,1286.5C 38.5,1276.5 38.5,1266.5 38.5,1256.5 Z"/></g>
<g><path style="opacity:0.971" fill="#006b32" d="M 132.5,1236.5 C 139.833,1236.5 147.167,1236.5 154.5,1236.5C 154.5,1273.83 154.5,1311.17 154.5,1348.5C 147.167,1348.5 139.833,1348.5 132.5,1348.5C 132.5,1311.17 132.5,1273.83 132.5,1236.5 Z"/></g>
<g><path style="opacity:0.947" fill="#006b32" d="M 581.5,1350.5 C 578.833,1350.5 576.167,1350.5 573.5,1350.5C 559.401,1347.24 550.234,1338.57 546,1324.5C 541.751,1308.49 543.418,1293.16 551,1278.5C 562.814,1265.01 576.981,1261.84 593.5,1269C 595.96,1270.46 598.127,1272.29 600,1274.5C 600.5,1261.84 600.667,1249.17 600.5,1236.5C 608.167,1236.5 615.833,1236.5 623.5,1236.5C 623.5,1273.83 623.5,1311.17 623.5,1348.5C 616.5,1348.5 609.5,1348.5 602.5,1348.5C 602.665,1345.15 602.498,1341.82 602,1338.5C 596.506,1344.99 589.673,1348.99 581.5,1350.5 Z M 580.5,1282.5 C 591.188,1282.02 597.688,1287.02 600,1297.5C 600.896,1305.25 600.563,1312.91 599,1320.5C 591.146,1334.81 581.48,1336.15 570,1324.5C 565.809,1313.96 565.476,1303.3 569,1292.5C 571.818,1287.84 575.651,1284.51 580.5,1282.5 Z"/></g>
<g><path style="opacity:0.955" fill="#006b32" d="M 825.5,1236.5 C 834.085,1236.18 842.585,1236.52 851,1237.5C 866.074,1274.31 880.574,1311.31 894.5,1348.5C 886.14,1348.83 877.807,1348.5 869.5,1347.5C 866.304,1339.91 863.304,1332.25 860.5,1324.5C 845.833,1323.17 831.167,1323.17 816.5,1324.5C 813.593,1332.39 810.593,1340.22 807.5,1348C 799.167,1348.67 790.833,1348.67 782.5,1348C 797.329,1311.01 811.662,1273.84 825.5,1236.5 Z M 837.5,1264.5 C 842.575,1277.21 847.575,1290.04 852.5,1303C 843.173,1303.5 833.839,1303.67 824.5,1303.5C 829.031,1290.57 833.364,1277.57 837.5,1264.5 Z"/></g>
<g><path style="opacity:0.92" fill="#006b32" d="M 1119.5,1236.5 C 1126.83,1236.5 1134.17,1236.5 1141.5,1236.5C 1141.5,1243.5 1141.5,1250.5 1141.5,1257.5C 1134.17,1257.5 1126.83,1257.5 1119.5,1257.5C 1119.5,1250.5 1119.5,1243.5 1119.5,1236.5 Z"/></g>
<g><path style="opacity:0.931" fill="#006b32" d="M 1649.5,1236.5 C 1656.83,1236.5 1664.17,1236.5 1671.5,1236.5C 1671.5,1243.5 1671.5,1250.5 1671.5,1257.5C 1664.17,1257.5 1656.83,1257.5 1649.5,1257.5C 1649.5,1250.5 1649.5,1243.5 1649.5,1236.5 Z"/></g>
<g><path style="opacity:0.964" fill="#006b32" d="M 1849.5,1236.5 C 1875.17,1236.5 1900.83,1236.5 1926.5,1236.5C 1926.5,1243.17 1926.5,1249.83 1926.5,1256.5C 1908.5,1256.5 1890.5,1256.5 1872.5,1256.5C 1872.5,1264.83 1872.5,1273.17 1872.5,1281.5C 1887.83,1281.5 1903.17,1281.5 1918.5,1281.5C 1918.5,1288.17 1918.5,1294.83 1918.5,1301.5C 1903.17,1301.5 1887.83,1301.5 1872.5,1301.5C 1872.5,1317.17 1872.5,1332.83 1872.5,1348.5C 1864.83,1348.5 1857.17,1348.5 1849.5,1348.5C 1849.5,1311.17 1849.5,1273.83 1849.5,1236.5 Z"/></g>
<g><path style="opacity:0.931" fill="#006b32" d="M 2208.5,1236.5 C 2215.83,1236.5 2223.17,1236.5 2230.5,1236.5C 2230.5,1243.5 2230.5,1250.5 2230.5,1257.5C 2223.17,1257.5 2215.83,1257.5 2208.5,1257.5C 2208.5,1250.5 2208.5,1243.5 2208.5,1236.5 Z"/></g>
<g><path style="opacity:0.971" fill="#006b32" d="M 2265.5,1236.5 C 2272.83,1236.5 2280.17,1236.5 2287.5,1236.5C 2287.5,1273.83 2287.5,1311.17 2287.5,1348.5C 2280.17,1348.5 2272.83,1348.5 2265.5,1348.5C 2265.5,1311.17 2265.5,1273.83 2265.5,1236.5 Z"/></g>
<g><path style="opacity:0.931" fill="#006b32" d="M 2322.5,1236.5 C 2329.83,1236.5 2337.17,1236.5 2344.5,1236.5C 2344.5,1243.5 2344.5,1250.5 2344.5,1257.5C 2337.17,1257.5 2329.83,1257.5 2322.5,1257.5C 2322.5,1250.5 2322.5,1243.5 2322.5,1236.5 Z"/></g>
<g><path style="opacity:0.95" fill="#006b32" d="M 1303.5,1350.5 C 1300.17,1350.5 1296.83,1350.5 1293.5,1350.5C 1280.28,1347.11 1274.78,1338.44 1277,1324.5C 1276.5,1311.17 1276.33,1297.84 1276.5,1284.5C 1273.5,1284.5 1270.5,1284.5 1267.5,1284.5C 1267.5,1278.83 1267.5,1273.17 1267.5,1267.5C 1270.5,1267.5 1273.5,1267.5 1276.5,1267.5C 1276.33,1262.16 1276.5,1256.82 1277,1251.5C 1284.08,1247.04 1291.25,1242.71 1298.5,1238.5C 1299.5,1248.14 1299.83,1257.81 1299.5,1267.5C 1304.17,1267.5 1308.83,1267.5 1313.5,1267.5C 1313.5,1273.17 1313.5,1278.83 1313.5,1284.5C 1308.83,1284.5 1304.17,1284.5 1299.5,1284.5C 1299.33,1299.17 1299.5,1313.84 1300,1328.5C 1301.16,1330.66 1302.99,1331.66 1305.5,1331.5C 1307.95,1331.24 1310.28,1330.57 1312.5,1329.5C 1314.37,1335.31 1315.37,1341.31 1315.5,1347.5C 1311.39,1348.51 1307.39,1349.51 1303.5,1350.5 Z"/></g>
<g><path style="opacity:0.948" fill="#006b32" d="M 215.5,1350.5 C 212.167,1350.5 208.833,1350.5 205.5,1350.5C 185.221,1344.94 179.054,1332.27 187,1312.5C 189.989,1308.51 193.822,1305.68 198.5,1304C 210.102,1300.85 221.768,1298.01 233.5,1295.5C 234.187,1289.01 231.52,1284.85 225.5,1283C 219.402,1281.65 213.902,1282.82 209,1286.5C 208.248,1289.38 206.582,1291.38 204,1292.5C 197.762,1291.43 191.595,1290.1 185.5,1288.5C 188.227,1277.61 194.893,1270.44 205.5,1267C 217.58,1264.78 229.58,1265.11 241.5,1268C 248.097,1270.26 252.264,1274.76 254,1281.5C 255.718,1294.82 255.885,1308.15 254.5,1321.5C 254.689,1330.81 256.356,1339.81 259.5,1348.5C 252.137,1348.83 244.803,1348.5 237.5,1347.5C 236.82,1345.11 235.986,1342.78 235,1340.5C 229.304,1345.6 222.804,1348.93 215.5,1350.5 Z M 230.5,1310.5 C 231.5,1310.5 232.5,1310.5 233.5,1310.5C 235.611,1323.99 230.111,1331.99 217,1334.5C 208.294,1332.83 204.961,1327.83 207,1319.5C 208.214,1317.95 209.714,1316.78 211.5,1316C 217.911,1313.99 224.244,1312.15 230.5,1310.5 Z"/></g>
<g><path style="opacity:0.951" fill="#006b32" d="M 327.5,1265.5 C 339.295,1263.38 349.462,1266.38 358,1274.5C 359,1276.5 360,1278.5 361,1280.5C 362.458,1303.11 362.958,1325.78 362.5,1348.5C 355.167,1348.5 347.833,1348.5 340.5,1348.5C 340.667,1330.16 340.5,1311.83 340,1293.5C 338.881,1286.71 334.881,1283.05 328,1282.5C 321.094,1283.09 316.094,1286.42 313,1292.5C 311.552,1311.11 311.052,1329.78 311.5,1348.5C 303.833,1348.5 296.167,1348.5 288.5,1348.5C 288.5,1321.5 288.5,1294.5 288.5,1267.5C 295.5,1267.5 302.5,1267.5 309.5,1267.5C 309.335,1270.85 309.502,1274.18 310,1277.5C 314.764,1271.87 320.598,1267.87 327.5,1265.5 Z"/></g>
<g><path style="opacity:0.955" fill="#006b32" d="M 439.5,1350.5 C 436.167,1350.5 432.833,1350.5 429.5,1350.5C 399.497,1343.9 387.663,1325.23 394,1294.5C 400.273,1275.24 413.606,1265.58 434,1265.5C 460.527,1266.86 474.694,1280.86 476.5,1307.5C 475.15,1331.5 462.817,1345.84 439.5,1350.5 Z M 430.5,1283.5 C 443.284,1283.44 450.784,1289.78 453,1302.5C 454.521,1312.26 452.021,1320.76 445.5,1328C 430.864,1335.27 421.031,1331.1 416,1315.5C 413.427,1304.56 415.927,1295.06 423.5,1287C 425.925,1285.79 428.259,1284.62 430.5,1283.5 Z"/></g>
<g><path style="opacity:0.95" fill="#006b32" d="M 695.5,1350.5 C 691.833,1350.5 688.167,1350.5 684.5,1350.5C 661.25,1346.28 649.916,1332.11 650.5,1308C 652.117,1275.04 669.117,1261.37 701.5,1267C 716.348,1273.17 724.515,1284.33 726,1300.5C 726.499,1305.15 726.666,1309.82 726.5,1314.5C 708.833,1314.5 691.167,1314.5 673.5,1314.5C 674.765,1328.95 682.431,1334.78 696.5,1332C 700.038,1329.05 702.705,1325.55 704.5,1321.5C 711.696,1322.64 718.696,1324.31 725.5,1326.5C 720.376,1340.71 710.376,1348.71 695.5,1350.5 Z M 685.5,1282.5 C 697.633,1282.3 703.966,1288.3 704.5,1300.5C 694.145,1300.83 683.812,1300.5 673.5,1299.5C 674.351,1291.42 678.351,1285.75 685.5,1282.5 Z"/></g>
<g><path style="opacity:0.949" fill="#006b32" d="M 957.5,1350.5 C 953.167,1350.5 948.833,1350.5 944.5,1350.5C 931.971,1349.65 922.138,1343.98 915,1333.5C 913.451,1330.69 912.618,1327.69 912.5,1324.5C 918.806,1323.41 925.139,1322.41 931.5,1321.5C 934.448,1322.34 936.281,1324.34 937,1327.5C 938.938,1330.11 941.438,1331.94 944.5,1333C 950.755,1334.13 956.755,1333.46 962.5,1331C 966.5,1327.67 966.5,1324.33 962.5,1321C 951.744,1318.31 941.078,1315.31 930.5,1312C 917.63,1306.76 912.797,1297.26 916,1283.5C 918.904,1274.93 924.737,1269.43 933.5,1267C 942.781,1265.48 952.114,1265.15 961.5,1266C 973.959,1267.63 981.959,1274.46 985.5,1286.5C 985,1286.83 984.5,1287.17 984,1287.5C 977.813,1288.78 971.646,1290.11 965.5,1291.5C 963.631,1288.95 961.631,1286.45 959.5,1284C 952.989,1281.08 946.322,1280.74 939.5,1283C 934.167,1286 934.167,1289 939.5,1292C 950.167,1295 960.833,1298 971.5,1301C 985.161,1305.82 990.327,1315.32 987,1329.5C 984.978,1337.05 980.478,1342.55 973.5,1346C 968.217,1348.15 962.884,1349.65 957.5,1350.5 Z"/></g>
<g><path style="opacity:0.95" fill="#006b32" d="M 1057.5,1350.5 C 1053.17,1350.5 1048.83,1350.5 1044.5,1350.5C 1027.98,1349.23 1016.98,1340.73 1011.5,1325C 1019.11,1322.89 1026.78,1322.05 1034.5,1322.5C 1035.7,1328.07 1039.03,1331.57 1044.5,1333C 1049.17,1333.67 1053.83,1333.67 1058.5,1333C 1065.43,1330.52 1066.77,1326.52 1062.5,1321C 1051.66,1318.61 1041,1315.61 1030.5,1312C 1014.66,1304.19 1010.83,1292.36 1019,1276.5C 1027.26,1267.8 1037.43,1264.13 1049.5,1265.5C 1067.4,1263.27 1079.4,1270.43 1085.5,1287C 1078.82,1288.44 1072.15,1289.94 1065.5,1291.5C 1063.63,1288.95 1061.63,1286.45 1059.5,1284C 1052.99,1281.08 1046.32,1280.74 1039.5,1283C 1034.34,1286.1 1034.34,1289.1 1039.5,1292C 1048.08,1294.64 1056.75,1296.98 1065.5,1299C 1086.44,1304.26 1092.61,1316.76 1084,1336.5C 1076.99,1344.75 1068.16,1349.42 1057.5,1350.5 Z"/></g>
<g><path style="opacity:0.948" fill="#006b32" d="M 1213.5,1350.5 C 1209.5,1350.5 1205.5,1350.5 1201.5,1350.5C 1185.04,1349.38 1174.04,1341.04 1168.5,1325.5C 1175.96,1323.2 1183.62,1321.87 1191.5,1321.5C 1192.15,1327.65 1195.49,1331.49 1201.5,1333C 1207.72,1334.06 1213.72,1333.39 1219.5,1331C 1223.84,1326.01 1222.84,1322.34 1216.5,1320C 1204.79,1317.88 1193.46,1314.54 1182.5,1310C 1170.98,1301.38 1168.48,1290.55 1175,1277.5C 1180.03,1271.14 1186.53,1267.3 1194.5,1266C 1202.17,1265.33 1209.83,1265.33 1217.5,1266C 1229.77,1267.6 1237.77,1274.27 1241.5,1286C 1241.17,1286.5 1240.83,1287 1240.5,1287.5C 1234.17,1288.83 1227.83,1290.17 1221.5,1291.5C 1217.22,1282.82 1210.22,1279.65 1200.5,1282C 1195.18,1282.02 1192.68,1284.52 1193,1289.5C 1194.58,1291.04 1196.41,1292.21 1198.5,1293C 1210.9,1295.43 1222.9,1299.1 1234.5,1304C 1243.15,1309.93 1246.31,1318.09 1244,1328.5C 1238.68,1342.57 1228.52,1349.91 1213.5,1350.5 Z"/></g>
<g><path style="opacity:0.953" fill="#006b32" d="M 1379.5,1350.5 C 1375.83,1350.5 1372.17,1350.5 1368.5,1350.5C 1350.76,1347.6 1339.93,1337.27 1336,1319.5C 1332.04,1300.23 1337.2,1284.07 1351.5,1271C 1365.82,1263.7 1380.15,1263.7 1394.5,1271C 1403.37,1277.57 1408.54,1286.4 1410,1297.5C 1410.63,1303.16 1411.13,1308.83 1411.5,1314.5C 1393.5,1314.33 1375.5,1314.5 1357.5,1315C 1358.49,1323.98 1363.16,1329.98 1371.5,1333C 1380.48,1334.17 1386.15,1330.34 1388.5,1321.5C 1394.78,1322.88 1401.11,1324.05 1407.5,1325C 1408.43,1325.39 1409.09,1326.05 1409.5,1327C 1404.27,1341.08 1394.27,1348.92 1379.5,1350.5 Z M 1370.5,1282.5 C 1382.15,1282.81 1388.15,1288.81 1388.5,1300.5C 1378.5,1300.5 1368.5,1300.5 1358.5,1300.5C 1358.18,1291.51 1362.18,1285.51 1370.5,1282.5 Z"/></g>
<g><path style="opacity:0.956" fill="#006b32" d="M 1479.5,1265.5 C 1488.67,1264.44 1497.33,1265.94 1505.5,1270C 1511.94,1275.65 1515.11,1282.82 1515,1291.5C 1515.5,1310.5 1515.67,1329.5 1515.5,1348.5C 1507.83,1348.5 1500.17,1348.5 1492.5,1348.5C 1492.67,1329.83 1492.5,1311.16 1492,1292.5C 1488.07,1282.52 1481.23,1280.02 1471.5,1285C 1468.54,1287.29 1466.37,1290.12 1465,1293.5C 1463.55,1311.78 1463.05,1330.11 1463.5,1348.5C 1456.17,1348.5 1448.83,1348.5 1441.5,1348.5C 1441.5,1321.5 1441.5,1294.5 1441.5,1267.5C 1448.17,1267.5 1454.83,1267.5 1461.5,1267.5C 1461.33,1270.85 1461.5,1274.18 1462,1277.5C 1466.84,1271.85 1472.67,1267.85 1479.5,1265.5 Z"/></g>
<g><path style="opacity:0.949" fill="#006b32" d="M 1589.5,1350.5 C 1585.83,1350.5 1582.17,1350.5 1578.5,1350.5C 1555.55,1345.7 1544.22,1331.37 1544.5,1307.5C 1546.16,1275.68 1562.83,1261.84 1594.5,1266C 1607.83,1269.16 1616.5,1277.33 1620.5,1290.5C 1620.29,1291.09 1619.96,1291.59 1619.5,1292C 1613.15,1293.1 1606.82,1294.27 1600.5,1295.5C 1598.23,1291.84 1595.56,1288.34 1592.5,1285C 1584.97,1281.64 1578.13,1282.81 1572,1288.5C 1566.05,1300.83 1566.05,1313.16 1572,1325.5C 1577.74,1331.6 1584.58,1333.1 1592.5,1330C 1596.55,1326.39 1598.89,1321.89 1599.5,1316.5C 1606.49,1317.66 1613.49,1318.83 1620.5,1320C 1619.84,1332.36 1613.84,1341.36 1602.5,1347C 1598.08,1348.35 1593.75,1349.52 1589.5,1350.5 Z"/></g>
<g><path style="opacity:0.949" fill="#006b32" d="M 1732.5,1350.5 C 1729.17,1350.5 1725.83,1350.5 1722.5,1350.5C 1703.43,1345.54 1696.93,1333.54 1703,1314.5C 1705.95,1309.56 1710.11,1306.06 1715.5,1304C 1727.1,1300.85 1738.77,1298.01 1750.5,1295.5C 1751.57,1288.8 1748.9,1284.64 1742.5,1283C 1736.4,1281.65 1730.9,1282.82 1726,1286.5C 1725.25,1289.38 1723.58,1291.38 1721,1292.5C 1714.76,1291.43 1708.6,1290.1 1702.5,1288.5C 1705.23,1277.61 1711.89,1270.44 1722.5,1267C 1734.59,1264.76 1746.59,1265.09 1758.5,1268C 1767.31,1271.44 1771.81,1277.94 1772,1287.5C 1772.33,1303.83 1772.67,1320.17 1773,1336.5C 1774.46,1340.42 1775.63,1344.42 1776.5,1348.5C 1769.17,1348.5 1761.83,1348.5 1754.5,1348.5C 1754.17,1345.69 1753.34,1343.02 1752,1340.5C 1746.3,1345.6 1739.8,1348.93 1732.5,1350.5 Z M 1747.5,1310.5 C 1748.5,1310.5 1749.5,1310.5 1750.5,1310.5C 1752.63,1323.95 1747.13,1331.95 1734,1334.5C 1725.25,1332.8 1721.91,1327.8 1724,1319.5C 1725.21,1317.95 1726.71,1316.78 1728.5,1316C 1734.91,1313.99 1741.24,1312.15 1747.5,1310.5 Z"/></g>
<g><path style="opacity:0.949" fill="#006b32" d="M 1983.5,1350.5 C 1980.5,1350.5 1977.5,1350.5 1974.5,1350.5C 1956.34,1346.88 1949.18,1335.88 1953,1317.5C 1955.5,1311 1960,1306.5 1966.5,1304C 1978.17,1301.1 1989.83,1298.27 2001.5,1295.5C 2002.57,1288.8 1999.9,1284.64 1993.5,1283C 1989.07,1282.21 1984.74,1282.54 1980.5,1284C 1977.62,1286.71 1974.96,1289.54 1972.5,1292.5C 1966.53,1291.24 1960.53,1290.24 1954.5,1289.5C 1955.92,1277.91 1962.25,1270.41 1973.5,1267C 1985.59,1264.76 1997.59,1265.09 2009.5,1268C 2018.03,1271.23 2022.53,1277.4 2023,1286.5C 2023.33,1302.83 2023.67,1319.17 2024,1335.5C 2024.91,1339.9 2026.41,1344.07 2028.5,1348C 2020.84,1348.5 2013.17,1348.67 2005.5,1348.5C 2005.28,1345.61 2004.45,1342.94 2003,1340.5C 1997.3,1345.6 1990.8,1348.93 1983.5,1350.5 Z M 1998.5,1310.5 C 1999.5,1310.5 2000.5,1310.5 2001.5,1310.5C 2004.1,1323.99 1998.77,1331.99 1985.5,1334.5C 1975.87,1332.89 1972.7,1327.56 1976,1318.5C 1976.9,1317.3 1978.07,1316.47 1979.5,1316C 1985.97,1314.22 1992.3,1312.38 1998.5,1310.5 Z"/></g>
<g><path style="opacity:0.962" fill="#006b32" d="M 2093.5,1265.5 C 2105.82,1263.27 2115.82,1266.94 2123.5,1276.5C 2133.49,1265.9 2145.49,1262.73 2159.5,1267C 2167.8,1270.42 2172.63,1276.59 2174,1285.5C 2174.5,1306.5 2174.67,1327.5 2174.5,1348.5C 2167.17,1348.5 2159.83,1348.5 2152.5,1348.5C 2152.67,1330.5 2152.5,1312.5 2152,1294.5C 2152.19,1287.19 2148.69,1283.19 2141.5,1282.5C 2134.56,1283.21 2130.06,1286.88 2128,1293.5C 2126.57,1311.79 2126.07,1330.12 2126.5,1348.5C 2119.17,1348.5 2111.83,1348.5 2104.5,1348.5C 2104.89,1328.8 2104.39,1309.13 2103,1289.5C 2101.69,1284.69 2098.52,1282.36 2093.5,1282.5C 2086.12,1283.38 2081.28,1287.38 2079,1294.5C 2077.63,1312.47 2077.13,1330.47 2077.5,1348.5C 2070.17,1348.5 2062.83,1348.5 2055.5,1348.5C 2055.5,1321.5 2055.5,1294.5 2055.5,1267.5C 2062.5,1267.5 2069.5,1267.5 2076.5,1267.5C 2076.34,1270.19 2076.5,1272.85 2077,1275.5C 2081.73,1270.73 2087.23,1267.39 2093.5,1265.5 Z"/></g>
<g><path style="opacity:0.948" fill="#006b32" d="M 2405.5,1350.5 C 2402.17,1350.5 2398.83,1350.5 2395.5,1350.5C 2375.22,1344.94 2369.05,1332.27 2377,1312.5C 2379.99,1308.51 2383.82,1305.68 2388.5,1304C 2400.1,1300.85 2411.77,1298.01 2423.5,1295.5C 2424.19,1289.01 2421.52,1284.85 2415.5,1283C 2409.4,1281.65 2403.9,1282.82 2399,1286.5C 2398.25,1289.38 2396.58,1291.38 2394,1292.5C 2387.76,1291.43 2381.6,1290.1 2375.5,1288.5C 2378.23,1277.61 2384.89,1270.44 2395.5,1267C 2407.58,1264.78 2419.58,1265.11 2431.5,1268C 2438.1,1270.26 2442.26,1274.76 2444,1281.5C 2445.71,1294.99 2445.88,1308.49 2444.5,1322C 2444.72,1331.14 2446.38,1339.98 2449.5,1348.5C 2442.14,1348.83 2434.8,1348.5 2427.5,1347.5C 2426.82,1345.11 2425.99,1342.78 2425,1340.5C 2419.3,1345.6 2412.8,1348.93 2405.5,1350.5 Z M 2420.5,1310.5 C 2421.5,1310.5 2422.5,1310.5 2423.5,1310.5C 2425.61,1323.99 2420.11,1331.99 2407,1334.5C 2398.29,1332.83 2394.96,1327.83 2397,1319.5C 2398.21,1317.95 2399.71,1316.78 2401.5,1316C 2407.91,1313.99 2414.24,1312.15 2420.5,1310.5 Z"/></g>
<g><path style="opacity:0.969" fill="#006b32" d="M 2510.5,1265.5 C 2518.12,1264.45 2525.12,1265.95 2531.5,1270C 2528.97,1275.92 2526.64,1281.92 2524.5,1288C 2509.66,1282.18 2501.83,1287.35 2501,1303.5C 2500.5,1318.5 2500.33,1333.5 2500.5,1348.5C 2493.17,1348.5 2485.83,1348.5 2478.5,1348.5C 2478.5,1321.5 2478.5,1294.5 2478.5,1267.5C 2485.17,1267.5 2491.83,1267.5 2498.5,1267.5C 2498.34,1270.52 2498.5,1273.52 2499,1276.5C 2502.07,1271.93 2505.9,1268.26 2510.5,1265.5 Z"/></g>
<g><path style="opacity:0.96" fill="#006b32" d="M 1119.5,1267.5 C 1126.83,1267.5 1134.17,1267.5 1141.5,1267.5C 1141.5,1294.5 1141.5,1321.5 1141.5,1348.5C 1134.17,1348.5 1126.83,1348.5 1119.5,1348.5C 1119.5,1321.5 1119.5,1294.5 1119.5,1267.5 Z"/></g>
<g><path style="opacity:0.972" fill="#006b32" d="M 1649.5,1267.5 C 1656.83,1267.5 1664.17,1267.5 1671.5,1267.5C 1671.5,1294.5 1671.5,1321.5 1671.5,1348.5C 1664.17,1348.5 1656.83,1348.5 1649.5,1348.5C 1649.5,1321.5 1649.5,1294.5 1649.5,1267.5 Z"/></g>
<g><path style="opacity:0.971" fill="#006b32" d="M 2208.5,1267.5 C 2215.83,1267.5 2223.17,1267.5 2230.5,1267.5C 2230.5,1294.5 2230.5,1321.5 2230.5,1348.5C 2223.17,1348.5 2215.83,1348.5 2208.5,1348.5C 2208.5,1321.5 2208.5,1294.5 2208.5,1267.5 Z"/></g>
<g><path style="opacity:0.972" fill="#006b32" d="M 2322.5,1267.5 C 2329.83,1267.5 2337.17,1267.5 2344.5,1267.5C 2344.5,1294.5 2344.5,1321.5 2344.5,1348.5C 2337.17,1348.5 2329.83,1348.5 2322.5,1348.5C 2322.5,1321.5 2322.5,1294.5 2322.5,1267.5 Z"/></g>
</svg>
